<svg width="344" height="260" viewBox="0 0 344 260" fill="none" xmlns="http://www.w3.org/2000/svg">
<g clip-path="url(#clip0_22_6)">
<path opacity="0.18" d="M119.767 174.896C137.312 182.604 157.157 182.486 176.323 182.231C186.377 182.104 196.778 181.901 205.933 177.737C218.659 171.945 226.923 159.513 238.088 151.1C250.908 141.424 267.317 137.252 279.746 127.084C285.796 122.139 290.694 115.936 294.101 108.906C297.508 101.876 299.341 94.1879 299.472 86.3777C299.604 78.5675 298.031 70.8224 294.863 63.6817C291.695 56.5409 287.008 50.176 281.129 45.03C274.554 39.2804 266.706 35.2184 258.926 31.2242L219.856 11.1261C210.701 6.41959 201.309 1.63675 191.094 0.356238C182.474 -0.720748 173.752 0.771768 165.327 2.69678C141.317 8.12411 117.493 17.4778 99.8794 34.5993C84.7265 49.3549 74.8338 69.1731 58.2556 82.309C54.0134 85.6587 49.3131 88.6182 46.2249 93.0449C35.1105 108.996 46.3691 129.374 60.8093 137.549C80.8068 148.862 98.8019 165.695 119.767 174.896Z" fill="#6EE7B7"/>
<path d="M172.004 259.147C245.889 259.147 305.784 251.751 305.784 242.627C305.784 233.504 245.889 226.108 172.004 226.108C98.1195 226.108 38.2241 233.504 38.2241 242.627C38.2241 251.751 98.1195 259.147 172.004 259.147Z" fill="#68E1FD"/>
<path d="M172.004 259.147C245.889 259.147 305.784 251.751 305.784 242.627C305.784 233.504 245.889 226.108 172.004 226.108C98.1195 226.108 38.2241 233.504 38.2241 242.627C38.2241 251.751 98.1195 259.147 172.004 259.147Z" fill="url(#paint0_linear_22_6)"/>
<path d="M98.7171 81.2404C96.2357 79.5584 93.4417 78.3915 90.5007 77.8088C87.5597 77.2262 84.5316 77.2396 81.5959 77.8483C80.5213 78.0156 79.5061 78.4501 78.6433 79.1119C76.6326 80.8079 76.9465 83.9626 76.412 86.5575C75.7587 89.7545 73.6122 92.4937 72.8401 95.6483C72.3905 98.0221 72.3646 100.457 72.7637 102.84C73.8942 112.239 76.1473 121.469 79.4748 130.332L70.1421 253.219C70.1421 253.219 79.6869 254.762 99.048 256.306L101.101 139.279L98.7171 81.2404Z" fill="#EEA886"/>
<path d="M88.1033 152.907L100.465 202.872V130.807L94.967 114.474L88.1033 152.907Z" fill="url(#paint1_linear_22_6)"/>
<path d="M249.754 82.292C252.241 80.6225 255.037 79.4682 257.978 78.8972C260.919 78.3262 263.944 78.3502 266.875 78.9678C267.951 79.1389 268.968 79.5729 269.836 80.2313C271.839 81.9274 271.533 85.082 272.059 87.6854C272.721 90.8825 274.867 93.6216 275.639 96.7762C276.09 99.1472 276.113 101.58 275.707 103.959C274.585 113.359 272.334 122.589 269.005 131.452L278.295 252.625C278.295 252.625 267.902 254.372 249.33 256.128L247.336 140.39L249.754 82.292Z" fill="#EEA886"/>
<path d="M261.954 149.336L257.568 171.851L248.227 192.162L247.404 147.963L261.954 149.336Z" fill="url(#paint2_linear_22_6)"/>
<path d="M255.404 41.0442H89.9866C86.0646 41.0442 82.8853 44.222 82.8853 48.1421V147.047C82.8853 150.967 86.0646 154.145 89.9866 154.145H255.404C259.326 154.145 262.506 150.967 262.506 147.047V48.1421C262.506 44.222 259.326 41.0442 255.404 41.0442Z" fill="#68E1FD"/>
<path d="M255.404 41.0442H89.9866C86.0646 41.0442 82.8853 44.222 82.8853 48.1421V147.047C82.8853 150.967 86.0646 154.145 89.9866 154.145H255.404C259.326 154.145 262.506 150.967 262.506 147.047V48.1421C262.506 44.222 259.326 41.0442 255.404 41.0442Z" fill="url(#paint3_linear_22_6)"/>
<path d="M255.404 36.5073H89.9866C86.0646 36.5073 82.8853 39.6852 82.8853 43.6053V142.51C82.8853 146.43 86.0646 149.608 89.9866 149.608H255.404C259.326 149.608 262.506 146.43 262.506 142.51V43.6053C262.506 39.6852 259.326 36.5073 255.404 36.5073Z" fill="#34D399"/>
<path d="M90.4957 79.7564C91.2236 80.1187 91.8438 80.6655 92.2943 81.3422C92.6671 82.1375 92.8501 83.0084 92.8288 83.8863L93.0834 89.356C93.1985 90.2559 93.0907 91.1703 92.7694 92.0188C92.5982 92.4374 92.285 92.7824 91.8848 92.9933C91.4845 93.2042 91.0228 93.2675 90.5805 93.1721C90.9053 94.2367 91.0104 95.3562 90.8894 96.4626C90.7683 97.569 90.4237 98.6394 89.8763 99.6086C89.602 100.017 89.3877 100.462 89.24 100.932C89.1695 101.498 89.1982 102.071 89.3248 102.628C89.5172 104 89.4147 105.397 89.024 106.726C88.6334 108.055 87.9637 109.286 87.0595 110.336C86.7831 110.68 86.4433 110.968 86.0584 111.184C85.5536 111.399 85.012 111.514 84.4633 111.523L81.969 111.735C81.8456 111.776 81.7147 111.787 81.5862 111.769C81.4576 111.751 81.335 111.704 81.2276 111.631C81.1203 111.558 81.0311 111.462 80.9669 111.349C80.9027 111.236 80.8653 111.11 80.8575 110.981C78.9636 104.976 78.1029 98.6931 78.3122 92.4004C78.4103 89.2296 78.7908 86.0738 79.4491 82.9704C79.8479 81.1557 80.6284 78.3911 82.5713 77.6534C85.0827 76.7714 88.3237 78.5099 90.4957 79.7564Z" fill="#EEA886"/>
<path d="M254.344 79.7564C253.616 80.1186 252.996 80.6654 252.545 81.3422C252.173 82.1374 251.99 83.0083 252.011 83.8862L251.756 89.356C251.641 90.2559 251.749 91.1702 252.07 92.0187C252.242 92.4374 252.555 92.7824 252.955 92.9932C253.355 93.2041 253.817 93.2674 254.259 93.172C253.935 94.2364 253.83 95.3552 253.949 96.4613C254.069 97.5674 254.411 98.638 254.955 99.6085C255.235 100.015 255.453 100.461 255.6 100.931C255.672 101.498 255.64 102.072 255.507 102.627C255.318 104 255.423 105.397 255.815 106.726C256.207 108.055 256.877 109.285 257.78 110.336C258.057 110.68 258.397 110.968 258.781 111.184C259.286 111.399 259.828 111.514 260.376 111.523L262.896 111.769C263.02 111.81 263.151 111.821 263.279 111.803C263.408 111.785 263.53 111.738 263.638 111.665C263.745 111.592 263.834 111.495 263.898 111.383C263.963 111.27 264 111.144 264.008 111.014C265.902 105.01 266.762 98.727 266.553 92.4343C266.456 89.2629 266.073 86.1067 265.408 83.0043C265.017 81.1895 264.559 78.9168 262.633 78.179C260.096 77.2547 256.516 78.5098 254.344 79.7564Z" fill="#EEA886"/>
<path d="M159.456 98.13C158.225 98.13 157.159 97.974 156.258 97.662C155.374 97.3327 154.689 96.8127 154.204 96.102C153.719 95.374 153.441 94.4033 153.372 93.19L152.904 82.712H156.57L157.012 91.916C157.047 92.6267 157.159 93.1727 157.35 93.554C157.558 93.918 157.853 94.1693 158.234 94.308C158.615 94.4293 159.109 94.49 159.716 94.49C160.375 94.49 160.843 94.6633 161.12 95.01C161.397 95.3393 161.536 95.7553 161.536 96.258C161.536 96.7953 161.354 97.246 160.99 97.61C160.643 97.9567 160.132 98.13 159.456 98.13ZM154.698 95.712C153.537 95.972 152.419 96.0933 151.344 96.076C150.269 96.0413 149.307 95.8507 148.458 95.504C147.609 95.14 146.933 94.62 146.43 93.944C145.945 93.268 145.702 92.41 145.702 91.37C145.702 90.4513 145.901 89.6193 146.3 88.874C146.716 88.1113 147.288 87.444 148.016 86.872C148.761 86.3 149.628 85.8147 150.616 85.416C151.604 85.0173 152.679 84.714 153.84 84.506L154.204 88.198C153.459 88.2327 152.783 88.3367 152.176 88.51C151.587 88.666 151.075 88.874 150.642 89.134C150.226 89.394 149.905 89.6887 149.68 90.018C149.455 90.33 149.342 90.668 149.342 91.032C149.342 91.3267 149.446 91.5693 149.654 91.76C149.862 91.9507 150.139 92.1067 150.486 92.228C150.833 92.332 151.231 92.3927 151.682 92.41C152.133 92.4273 152.592 92.4013 153.06 92.332C153.545 92.2627 154.022 92.15 154.49 91.994L154.698 95.712ZM159.447 98.13L159.707 94.49C160.331 94.49 160.869 94.4293 161.319 94.308C161.77 94.1867 162.151 93.944 162.463 93.58C162.775 93.1987 163.035 92.644 163.243 91.916C163.469 91.188 163.668 90.2173 163.841 89.004L167.247 89.576C167.213 89.836 167.161 90.1393 167.091 90.486C167.039 90.8327 166.987 91.188 166.935 91.552C166.901 91.8987 166.883 92.228 166.883 92.54C166.883 92.852 166.944 93.1293 167.065 93.372C167.187 93.6147 167.377 93.8227 167.637 93.996C167.915 94.152 168.27 94.2733 168.703 94.36C169.154 94.4467 169.7 94.49 170.341 94.49C171 94.49 171.468 94.6633 171.745 95.01C172.023 95.3393 172.161 95.7553 172.161 96.258C172.161 96.7953 171.979 97.246 171.615 97.61C171.269 97.9567 170.757 98.13 170.081 98.13C169.301 98.13 168.591 98.0693 167.949 97.948C167.325 97.8267 166.779 97.6273 166.311 97.35C165.861 97.0553 165.488 96.674 165.193 96.206C164.916 95.7207 164.743 95.1313 164.673 94.438H165.921C165.609 95.27 165.211 95.9373 164.725 96.44C164.257 96.9253 163.729 97.2893 163.139 97.532C162.55 97.7747 161.935 97.9307 161.293 98C160.669 98.0867 160.054 98.13 159.447 98.13ZM166.701 104.162C166.199 104.162 165.765 103.98 165.401 103.616C165.055 103.269 164.881 102.853 164.881 102.368C164.881 101.865 165.055 101.432 165.401 101.068C165.765 100.704 166.199 100.522 166.701 100.522C167.187 100.522 167.603 100.704 167.949 101.068C168.296 101.432 168.469 101.865 168.469 102.368C168.469 102.853 168.296 103.269 167.949 103.616C167.603 103.98 167.187 104.162 166.701 104.162ZM162.203 104.162C161.701 104.162 161.267 103.98 160.903 103.616C160.557 103.269 160.383 102.853 160.383 102.368C160.383 101.865 160.557 101.432 160.903 101.068C161.267 100.704 161.701 100.522 162.203 100.522C162.689 100.522 163.105 100.704 163.451 101.068C163.798 101.432 163.971 101.865 163.971 102.368C163.971 102.853 163.798 103.269 163.451 103.616C163.105 103.98 162.689 104.162 162.203 104.162ZM170.086 98.13L170.346 94.49C171.005 94.49 171.525 94.4293 171.906 94.308C172.305 94.1867 172.617 93.944 172.842 93.58C173.085 93.1987 173.284 92.644 173.44 91.916C173.613 91.188 173.787 90.2173 173.96 89.004L177.366 89.576C177.331 89.836 177.279 90.1393 177.21 90.486C177.158 90.8327 177.106 91.188 177.054 91.552C177.019 91.8987 177.002 92.228 177.002 92.54C177.002 92.956 177.089 93.3113 177.262 93.606C177.453 93.8833 177.782 94.1 178.25 94.256C178.735 94.412 179.429 94.49 180.33 94.49C180.989 94.49 181.457 94.6633 181.734 95.01C182.011 95.3393 182.15 95.7553 182.15 96.258C182.15 96.7953 181.968 97.246 181.604 97.61C181.257 97.9567 180.746 98.13 180.07 98.13C178.874 98.13 177.903 98.0173 177.158 97.792C176.413 97.5667 175.858 97.1853 175.494 96.648C175.13 96.1107 174.896 95.374 174.792 94.438H176.04C175.728 95.27 175.364 95.9373 174.948 96.44C174.532 96.9253 174.064 97.2893 173.544 97.532C173.024 97.7747 172.469 97.9307 171.88 98C171.308 98.0867 170.71 98.13 170.086 98.13ZM174.714 104.11C174.211 104.11 173.778 103.937 173.414 103.59C173.067 103.243 172.894 102.819 172.894 102.316C172.894 101.813 173.067 101.371 173.414 100.99C173.778 100.626 174.211 100.444 174.714 100.444C175.217 100.444 175.641 100.626 175.988 100.99C176.352 101.371 176.534 101.813 176.534 102.316C176.534 102.819 176.352 103.243 175.988 103.59C175.641 103.937 175.217 104.11 174.714 104.11ZM180.064 98.13L180.324 94.49C180.983 94.49 181.503 94.4293 181.884 94.308C182.283 94.1867 182.595 93.944 182.82 93.58C183.063 93.1987 183.262 92.644 183.418 91.916C183.592 91.188 183.765 90.2173 183.938 89.004L187.344 89.576C187.31 89.836 187.258 90.1393 187.188 90.486C187.136 90.8327 187.084 91.188 187.032 91.552C186.998 91.8987 186.98 92.228 186.98 92.54C186.98 92.956 187.067 93.3113 187.24 93.606C187.431 93.8833 187.76 94.1 188.228 94.256C188.714 94.412 189.407 94.49 190.308 94.49C190.967 94.49 191.435 94.6633 191.712 95.01C191.99 95.3393 192.128 95.7553 192.128 96.258C192.128 96.7953 191.946 97.246 191.582 97.61C191.236 97.9567 190.724 98.13 190.048 98.13C188.852 98.13 187.882 98.0173 187.136 97.792C186.391 97.5667 185.836 97.1853 185.472 96.648C185.108 96.1107 184.874 95.374 184.77 94.438H186.018C185.706 95.27 185.342 95.9373 184.926 96.44C184.51 96.9253 184.042 97.2893 183.522 97.532C183.002 97.7747 182.448 97.9307 181.858 98C181.286 98.0867 180.688 98.13 180.064 98.13ZM185.368 86.352C184.831 86.352 184.372 86.17 183.99 85.806C183.626 85.442 183.444 84.9913 183.444 84.454C183.444 83.9167 183.626 83.4573 183.99 83.076C184.372 82.6947 184.831 82.504 185.368 82.504C185.888 82.504 186.33 82.6947 186.694 83.076C187.076 83.4573 187.266 83.9167 187.266 84.454C187.266 84.9913 187.076 85.442 186.694 85.806C186.33 86.17 185.888 86.352 185.368 86.352ZM190.043 98.13L190.303 94.49C191.343 94.49 192.14 94.438 192.695 94.334C193.25 94.23 193.631 94.0393 193.839 93.762C194.064 93.4673 194.177 93.0513 194.177 92.514C194.177 92.0287 194.108 91.448 193.969 90.772C193.848 90.096 193.683 89.394 193.475 88.666C193.284 87.938 193.076 87.2707 192.851 86.664L196.439 85.676C196.664 86.2653 196.881 86.95 197.089 87.73C197.297 88.51 197.47 89.316 197.609 90.148C197.748 90.9627 197.817 91.7513 197.817 92.514C197.817 93.6927 197.626 94.6547 197.245 95.4C196.864 96.128 196.326 96.6913 195.633 97.09C194.957 97.4887 194.142 97.766 193.189 97.922C192.236 98.0607 191.187 98.13 190.043 98.13ZM197.089 83.57C196.586 83.57 196.153 83.3967 195.789 83.05C195.442 82.686 195.269 82.2613 195.269 81.776C195.269 81.2733 195.442 80.84 195.789 80.476C196.153 80.112 196.586 79.93 197.089 79.93C197.574 79.93 197.99 80.112 198.337 80.476C198.684 80.84 198.857 81.2733 198.857 81.776C198.857 82.2613 198.684 82.686 198.337 83.05C197.99 83.3967 197.574 83.57 197.089 83.57ZM192.591 83.544C192.088 83.544 191.655 83.3707 191.291 83.024C190.944 82.66 190.771 82.2353 190.771 81.75C190.771 81.2473 190.944 80.814 191.291 80.45C191.655 80.086 192.088 79.904 192.591 79.904C193.076 79.904 193.492 80.086 193.839 80.45C194.186 80.814 194.359 81.2473 194.359 81.75C194.359 82.2353 194.186 82.66 193.839 83.024C193.492 83.3707 193.076 83.544 192.591 83.544Z" fill="white"/>
</g>
<defs>
<linearGradient id="paint0_linear_22_6" x1="122" y1="233.5" x2="184.499" y2="265.502" gradientUnits="userSpaceOnUse">
<stop stop-color="#059669" stop-opacity="0.74"/>
<stop offset="0.95" stop-color="#065F46"/>
</linearGradient>
<linearGradient id="paint1_linear_22_6" x1="95.6628" y1="196.427" x2="93.1962" y2="98.8368" gradientUnits="userSpaceOnUse">
<stop stop-opacity="0"/>
<stop offset="0.99"/>
</linearGradient>
<linearGradient id="paint2_linear_22_6" x1="255.421" y1="182.977" x2="253.777" y2="121.759" gradientUnits="userSpaceOnUse">
<stop stop-opacity="0"/>
<stop offset="0.95"/>
</linearGradient>
<linearGradient id="paint3_linear_22_6" x1="169.671" y1="202.211" x2="173.511" y2="69.3425" gradientUnits="userSpaceOnUse">
<stop stop-opacity="0"/>
<stop offset="0.99"/>
</linearGradient>
<clipPath id="clip0_22_6">
<rect width="344" height="259.147" fill="white"/>
</clipPath>
</defs>
</svg>
